# This file uses centimeters as units for non-parametric coordinates.

mtllib BlackBook.mtl
g default
v -0.788276 3.749252 6.389093
v -0.813343 3.749252 6.369965
v -0.838409 3.749252 6.357159
v -0.863476 3.749252 6.352658
v -0.888543 3.749252 6.357159
v -0.913609 3.749252 6.369965
v -0.938676 3.749252 6.389093
v -0.788276 4.513467 6.389093
v -0.813343 4.513467 6.369965
v -0.838409 4.513467 6.357159
v -0.863476 4.513467 6.352658
v -0.888543 4.513467 6.357159
v -0.913609 4.513467 6.369965
v -0.938676 4.513467 6.389093
v -0.788276 4.513467 6.944445
v -0.938676 4.513467 6.944445
v -0.788276 3.749252 6.944445
v -0.938676 3.749252 6.944445
v -0.813343 4.513467 6.382648
v -0.838409 4.513467 6.367520
v -0.863476 4.513467 6.361267
v -0.888543 4.513467 6.367520
v -0.913609 4.513467 6.382648
v -0.796823 3.749252 6.382572
v -0.796823 3.749252 6.944445
v -0.796823 4.513467 6.944445
v -0.796823 4.513467 6.382572
v -0.930129 3.749252 6.382572
v -0.930129 3.749252 6.944445
v -0.930129 4.513467 6.944445
v -0.930129 4.513467 6.382572
v -0.930129 4.513467 6.395132
v -0.796823 4.513467 6.395132
v -0.788276 4.513467 6.403402
v -0.788276 3.749252 6.403401
v -0.796823 3.749252 6.397048
v -0.813343 3.749252 6.384768
v -0.838409 3.749252 6.372290
v -0.863476 3.749252 6.367906
v -0.888543 3.749252 6.372290
v -0.913609 3.749252 6.384768
v -0.930129 3.749252 6.397048
v -0.938676 3.749252 6.403401
v -0.938676 4.513467 6.403402
v -0.813343 4.513467 6.382648
v -0.838409 4.513467 6.367520
v -0.863476 4.513467 6.361267
v -0.888543 4.513467 6.367520
v -0.913609 4.513467 6.382648
v -0.796823 3.774318 6.932979
v -0.796823 4.513467 6.932979
v -0.930129 4.513467 6.932979
v -0.930129 3.774318 6.932979
v -0.930129 4.513467 6.395132
v -0.796823 4.513467 6.395132
v -0.796823 3.774318 6.397048
v -0.813343 3.774318 6.384768
v -0.838409 3.774318 6.372290
v -0.863476 3.774318 6.367906
v -0.888543 3.774318 6.372290
v -0.913609 3.774318 6.384768
v -0.930129 3.774318 6.397048
v -0.813343 4.488401 6.382648
v -0.838409 4.488401 6.367520
v -0.863476 4.488401 6.361267
v -0.888543 4.488401 6.367520
v -0.913609 4.488401 6.382648
v -0.930129 4.488401 6.395132
v -0.930129 4.488401 6.932979
v -0.796823 4.488401 6.932979
v -0.796823 4.488401 6.395132
v -0.796823 4.488401 6.932979
v -0.796823 4.488401 6.395132
v -0.813343 4.488401 6.382648
v -0.838409 4.488401 6.367520
v -0.863476 4.488401 6.361267
v -0.888543 4.488401 6.367520
v -0.913609 4.488401 6.382648
v -0.930129 4.488401 6.395132
v -0.930129 4.488401 6.932979
vt 0.376373 0.700307
vt 0.614928 0.032508
vt 0.614928 0.538916
vt 0.471819 0.700307
vt 0.973451 0.032508
vt 0.973451 0.538916
vt 0.369765 0.947874
vt 0.233080 0.539556
vt 0.274319 0.945003
vt 0.369765 0.945003
vt 0.591603 0.539557
vt 0.591603 0.033149
vt 0.190425 0.701783
vt 0.285872 0.701783
vt 0.285872 0.704084
vt 0.193556 0.704084
vt 0.190425 0.811634
vt 0.193556 0.811634
vt 0.383944 0.811634
vt 0.288498 0.811634
vt 0.291629 0.809333
vt 0.383944 0.809333
vt 0.288498 0.701783
vt 0.291629 0.701783
vt 0.389629 0.701783
vt 0.389629 0.809718
vt 0.386499 0.809718
vt 0.386499 0.701783
vt 0.395394 0.701783
vt 0.395394 0.809718
vt 0.392264 0.809718
vt 0.392264 0.701783
vt 0.201994 0.830786
vt 0.191510 0.833291
vt 0.191510 0.830770
vt 0.201994 0.828240
vt 0.186086 0.832079
vt 0.186086 0.834950
vt 0.217901 0.825671
vt 0.217901 0.827750
vt 0.191510 0.943527
vt 0.186086 0.943527
vt 0.233809 0.824767
vt 0.233809 0.826495
vt 0.191510 0.833291
vt 0.191510 0.941226
vt 0.249717 0.825671
vt 0.249717 0.827750
vt 0.265624 0.828240
vt 0.265624 0.830786
vt 0.276108 0.830770
vt 0.276108 0.833291
vt 0.281532 0.834950
vt 0.281532 0.832079
vt 0.276108 0.943527
vt 0.281532 0.943527
vt 0.289582 0.937524
vt 0.289582 0.934618
vt 0.300066 0.937083
vt 0.300066 0.940053
vt 0.284159 0.933344
vt 0.284159 0.936215
vt 0.315974 0.939587
vt 0.315974 0.942623
vt 0.284159 0.824767
vt 0.289582 0.824767
vt 0.331882 0.940467
vt 0.331882 0.943527
vt 0.347789 0.939587
vt 0.347789 0.942623
vt 0.363697 0.937083
vt 0.363697 0.940053
vt 0.374181 0.934618
vt 0.374181 0.937524
vt 0.379605 0.933344
vt 0.379605 0.936215
vt 0.374181 0.824767
vt 0.379605 0.824767
vt 0.789047 0.946313
vt 0.789354 0.588520
vt 0.800351 0.580224
vt 0.817035 0.570175
vt 0.833714 0.566030
vt 0.850385 0.570204
vt 0.867052 0.580281
vt 0.878034 0.588596
vt 0.877726 0.946389
vt 0.801520 0.579214
vt 0.818209 0.570940
vt 0.834889 0.568050
vt 0.851559 0.570994
vt 0.868221 0.579321
vt 0.879197 0.587508
vt 0.878624 0.944027
vt 0.789945 0.943884
vt 0.790517 0.587366
vt 0.403452 0.797229
vt 0.403452 0.701783
vt 0.413936 0.701783
vt 0.413936 0.797229
vt 0.398028 0.701783
vt 0.398028 0.797229
vt 0.429844 0.701783
vt 0.429844 0.797229
vt 0.445751 0.701783
vt 0.445751 0.797229
vt 0.461659 0.701783
vt 0.461659 0.797229
vt 0.477567 0.701783
vt 0.477567 0.797229
vt 0.488051 0.701783
vt 0.488051 0.797229
vt 0.493474 0.701783
vt 0.493474 0.797229
vt 0.478183 0.678945
vt 0.478183 0.583499
vt 0.483606 0.583499
vt 0.483606 0.678945
vt 0.486109 0.583499
vt 0.491533 0.583499
vt 0.491533 0.678945
vt 0.486109 0.678945
vt 0.791169 0.585553
vt 0.879089 0.585736
vt 0.879144 0.573110
vt 0.877778 0.945381
vt 0.789867 0.945199
vt 0.791207 0.572928
vt 0.471819 0.872819
vt 0.471819 0.883303
vt 0.468688 0.883303
vt 0.468688 0.872819
vt 0.471819 0.856912
vt 0.468666 0.856518
vt 0.471819 0.841004
vt 0.468697 0.841004
vt 0.471819 0.825096
vt 0.468702 0.825489
vt 0.471819 0.809189
vt 0.468688 0.809189
vt 0.471819 0.798705
vt 0.468688 0.798705
vt 0.463289 0.872819
vt 0.463289 0.856912
vt 0.466420 0.856912
vt 0.466420 0.872819
vt 0.463289 0.841004
vt 0.466402 0.841146
vt 0.463289 0.883303
vt 0.466420 0.883303
vt 0.463289 0.825096
vt 0.466437 0.825636
vt 0.463289 0.809189
vt 0.466420 0.809189
vt 0.463289 0.798705
vt 0.466420 0.798705
vt 0.376373 0.697436
vt 0.471819 0.697436
vt 0.233080 0.033149
vt 0.274319 0.947874
vt 0.789047 0.946313
vt 0.789354 0.588520
vt 0.800351 0.580224
vt 0.817035 0.570175
vt 0.833714 0.566030
vt 0.850385 0.570204
vt 0.867052 0.580281
vt 0.878034 0.588596
vt 0.877726 0.946389
vn 0.606636 0.000000 -0.794980
vn 0.606636 0.000000 -0.794980
vn 0.521438 0.000000 -0.853289
vn 0.521438 0.000000 -0.853289
vn 0.326334 0.000000 -0.945254
vn 0.326334 0.000000 -0.945254
vn -0.000000 0.000000 -1.000000
vn -0.000000 0.000000 -1.000000
vn -0.326334 0.000000 -0.945254
vn -0.326334 0.000000 -0.945254
vn -0.521438 0.000000 -0.853289
vn -0.521438 0.000000 -0.853289
vn -0.606636 0.000000 -0.794980
vn -0.606636 0.000000 -0.794980
vn -0.606594 0.000000 -0.795012
vn -0.606594 0.000000 -0.795012
vn 0.000000 1.000000 -0.000000
vn 0.000000 1.000000 -0.000000
vn 0.000000 1.000000 -0.000000
vn 0.000000 1.000000 -0.000000
vn 0.000000 1.000000 -0.000000
vn 0.000000 1.000000 -0.000000
vn 0.000000 1.000000 -0.000000
vn 0.000000 1.000000 -0.000000
vn -0.000000 0.000000 1.000000
vn -0.000000 0.000000 1.000000
vn -0.000000 0.000000 1.000000
vn -0.000000 0.000000 1.000000
vn 0.000000 -1.000000 0.000000
vn 0.000000 -1.000000 0.000000
vn 0.000000 -1.000000 0.000000
vn 0.000000 -1.000000 0.000000
vn 0.000000 -1.000000 0.000000
vn 0.000000 -1.000000 0.000000
vn 0.000000 -1.000000 0.000000
vn 0.000000 -1.000000 0.000000
vn 0.000000 -1.000000 0.000000
vn 0.000000 -1.000000 0.000000
vn 0.000000 -1.000000 0.000000
vn 0.000000 -1.000000 0.000000
vn 0.000000 -1.000000 0.000000
vn 0.000000 -1.000000 0.000000
vn 0.000000 -1.000000 0.000000
vn 0.000000 -1.000000 0.000000
vn -1.000000 0.000000 -0.000000
vn -1.000000 0.000000 -0.000000
vn -1.000000 0.000000 -0.000000
vn -1.000000 0.000000 -0.000000
vn 1.000000 0.000000 0.000000
vn 1.000000 0.000000 0.000000
vn 1.000000 0.000000 0.000000
vn 1.000000 0.000000 0.000000
vn 0.000000 1.000000 -0.000000
vn 0.000000 1.000000 -0.000000
vn 0.000000 1.000000 -0.000000
vn 0.000000 1.000000 -0.000000
vn 0.000000 1.000000 -0.000000
vn 0.000000 1.000000 -0.000000
vn 0.000000 1.000000 -0.000000
vn 0.000000 1.000000 -0.000000
vn 0.000000 -1.000000 0.000000
vn 0.000000 -1.000000 0.000000
vn -0.000000 0.000000 1.000000
vn -0.000000 0.000000 1.000000
vn -0.000000 0.000000 1.000000
vn -0.000000 0.000000 1.000000
vn 0.000000 1.000000 -0.000000
vn 0.000000 1.000000 -0.000000
vn 0.606594 0.000000 -0.795012
vn 0.606594 0.000000 -0.795012
vn -0.000000 0.000000 -0.000000
vn -0.000000 0.000000 1.000000
vn -0.000000 0.000000 1.000000
vn 0.000000 0.000000 0.000000
vn -0.000000 0.000000 1.000000
vn -0.000000 0.000000 1.000000
vn 0.000000 1.000000 -0.000000
vn 0.000000 1.000000 -0.000000
vn 0.000000 1.000000 -0.000000
vn 0.000000 1.000000 -0.000000
vn 0.000000 1.000000 -0.000000
vn 0.000000 1.000000 -0.000000
vn 0.000000 1.000000 -0.000000
vn 0.000000 1.000000 -0.000000
vn 0.000000 1.000000 -0.000000
vn 0.000000 1.000000 -0.000000
vn 1.000000 0.000000 0.000000
vn 1.000000 0.000000 0.000000
vn 0.000000 -1.000000 0.000000
vn 0.000000 -1.000000 0.000000
vn 0.000000 -1.000000 0.000000
vn 0.000000 -1.000000 -0.000000
vn 0.000000 -1.000000 -0.000000
vn -0.000000 -1.000000 0.000000
vn -0.000000 -1.000000 0.000000
vn 0.000000 -1.000000 -0.000000
vn 0.000000 -1.000000 0.000000
vn 0.000000 -1.000000 0.000000
vn 0.000000 -1.000000 0.000000
vn 0.000000 -1.000000 0.000000
vn 0.000000 -1.000000 0.000000
vn -1.000000 0.000000 -0.000000
vn -1.000000 0.000000 -0.000000
vn 0.000000 1.000000 -0.000000
vn 0.000000 1.000000 -0.000000
vn 0.000000 1.000000 -0.000000
vn -1.000000 0.000000 -0.000000
vn -1.000000 0.000000 -0.000000
vn -1.000000 0.000000 -0.000000
vn -1.000000 0.000000 -0.000000
vn 1.000000 0.000000 0.000000
vn 1.000000 0.000000 0.000000
vn 1.000000 0.000000 0.000000
vn 1.000000 0.000000 0.000000
vn 0.000000 0.000000 -0.000000
vn 0.000000 0.000000 -0.000000
vn 0.000000 0.000000 -0.000000
vn 0.000000 0.000000 -0.000000
vn -0.596583 0.000000 0.802552
vn -0.596583 0.000000 0.802552
vn -0.596583 0.000000 0.802552
vn -0.596583 0.000000 0.802552
vn -1.000000 -0.000000 -0.000000
vn -1.000000 -0.000000 -0.000000
vn -1.000000 -0.000000 -0.000000
vn -1.000000 -0.000000 -0.000000
vn -0.445619 0.000000 0.895223
vn -0.445619 0.000000 0.895223
vn -0.445619 0.000000 0.895223
vn -0.445619 0.000000 0.895223
vn -0.172291 0.000000 0.985046
vn -0.172291 0.000000 0.985046
vn -0.172291 0.000000 0.985046
vn -0.172291 0.000000 0.985046
vn 0.172291 0.000000 0.985046
vn 0.172291 0.000000 0.985046
vn 0.172291 0.000000 0.985046
vn 0.172291 0.000000 0.985046
vn 0.445619 0.000000 0.895222
vn 0.445619 0.000000 0.895222
vn 0.445619 0.000000 0.895222
vn 0.445619 0.000000 0.895222
vn 1.000000 0.000000 0.000000
vn 1.000000 0.000000 0.000000
vn 1.000000 0.000000 0.000000
vn 1.000000 0.000000 0.000000
vn 0.596583 0.000000 0.802552
vn 0.596583 0.000000 0.802552
vn 0.596583 0.000000 0.802552
vn 0.596583 0.000000 0.802552
vn -0.516688 0.000000 0.856174
vn -0.516688 0.000000 0.856174
vn -0.516688 0.000000 0.856174
vn -0.516688 0.000000 0.856174
vn -0.242041 0.000000 0.970266
vn -0.242041 0.000000 0.970266
vn -0.242041 0.000000 0.970266
vn -0.242041 0.000000 0.970266
vn 0.242041 0.000000 0.970266
vn 0.242041 0.000000 0.970266
vn 0.242041 0.000000 0.970266
vn 0.242041 0.000000 0.970266
vn 0.516688 0.000000 0.856174
vn 0.516688 0.000000 0.856174
vn 0.516688 0.000000 0.856174
vn 0.516688 0.000000 0.856174
vn 0.602927 0.000000 0.797796
vn 0.602927 0.000000 0.797796
vn 0.602927 0.000000 0.797796
vn 0.602927 0.000000 0.797796
vn 1.000000 0.000000 0.000000
vn 1.000000 0.000000 0.000000
vn 1.000000 0.000000 0.000000
vn 1.000000 0.000000 0.000000
vn -1.000000 0.000000 -0.000000
vn -1.000000 0.000000 -0.000000
vn -1.000000 0.000000 -0.000000
vn -1.000000 0.000000 -0.000000
vn -0.602928 0.000000 0.797796
vn -0.602928 0.000000 0.797796
vn -0.602928 0.000000 0.797796
vn -0.602928 0.000000 0.797796
vn 0.000000 0.000000 -0.000000
vn 0.000000 0.000000 -0.000000
vn 0.000000 0.000000 -0.000000
vn 0.000000 0.000000 -0.000000
vn 0.000000 0.000000 -0.000000
vn 0.000000 0.000000 -0.000000
vn 0.000000 0.000000 -0.000000
vn 0.000000 0.000000 -0.000000
vn 0.000000 0.000000 -0.000000
vn 0.000000 0.000000 -0.000000
vn 0.000000 0.000000 -0.000000
vn 0.000000 0.000000 -0.000000
vn 0.000000 0.000000 -0.000000
vn 0.000000 0.000000 -0.000000
vn 0.000000 0.000000 -0.000000
vn 0.000000 0.000000 -0.000000
vn 0.000000 0.000000 -0.000000
vn 0.000000 0.000000 -0.000000
vn 0.000000 0.000000 -0.000000
vn 0.000000 0.000000 -0.000000
vn 0.000000 0.000000 -0.000000
vn 0.000000 0.000000 -0.000000
vn 0.000000 0.000000 -0.000000
vn 0.000000 0.000000 -0.000000
vn 0.000000 0.000000 -0.000000
vn 0.000000 0.000000 -0.000000
vn 0.000000 0.000000 -0.000000
vn 0.000000 0.000000 -0.000000
vn 0.000000 0.000000 -0.000000
vn 0.000000 0.000000 -0.000000
vn 0.000000 0.000000 -0.000000
vn 0.000000 0.000000 -0.000000
vn 0.000000 0.000000 -0.000000
vn 0.000000 0.000000 -0.000000
vn 0.000000 0.000000 -0.000000
vn 0.000000 0.000000 -0.000000
s 1
g pCube213
usemtl lambert17SG
f 27/97/1 24/98/2 2/99/3 9/100/4
f 2/99/3 3/103/5 10/104/6 9/100/4
f 3/103/5 4/105/7 11/106/8 10/104/6
f 4/105/7 5/107/9 12/108/10 11/106/8
f 5/107/9 6/109/11 13/110/12 12/108/10
f 31/112/13 28/111/14 7/113/15 14/114/16
s 2
f 19/33/17 33/34/18 27/35/19 9/36/20
f 30/55/21 32/52/22 44/53/23 16/56/24
s off
f 29/115/25 30/116/26 16/117/27 18/118/28
s 4
f 24/57/29 36/58/30 37/59/31 2/60/32
f 37/59/31 38/63/33 3/64/34 2/60/32
f 38/63/33 39/67/35 4/68/36 3/64/34
f 39/67/35 40/69/37 5/70/38 4/68/36
f 40/69/37 41/71/39 6/72/40 5/70/38
f 28/74/41 42/73/42 43/75/43 7/76/44
s 5
f 7/1/45 43/157/46 44/158/47 14/4/48
s 6
f 34/7/49 35/160/50 1/9/51 8/10/52
s 2
f 9/36/20 10/39/53 20/40/54 19/33/17
f 10/39/53 11/43/55 21/44/56 20/40/54
f 11/43/55 12/47/57 22/48/58 21/44/56
f 12/47/57 13/49/59 23/50/60 22/48/58
s 4
f 35/61/61 36/58/30 24/57/29 1/62/62
s off
f 15/119/63 26/120/64 25/121/65 17/122/66
s 2
f 8/37/67 27/35/19 33/34/18 34/38/68
s 1
f 1/101/69 24/98/2 27/97/1 8/102/70
s 4
f 41/71/39 42/73/42 28/74/41 6/72/40
s 7
f 52/125/71 53/126/72 69/124/73
f 51/128/74 70/123/75 50/127/76
f 70/123/75 69/124/73 50/127/76
f 69/124/73 53/126/72 50/127/76
s 1
f 6/109/11 28/111/14 31/112/13 13/110/12
s 2
f 13/49/59 31/51/77 32/52/22 23/50/60
s 9
f 72/161/78 73/162/79 80/169/80
f 73/162/79 74/163/81 80/169/80
f 74/163/81 75/164/82 80/169/80
f 75/164/82 76/165/83 80/169/80
f 76/165/83 77/166/84 80/169/80
f 77/166/84 78/167/85 80/169/80
f 78/167/85 79/168/86 80/169/80
s 6
f 17/11/87 35/8/50 34/159/49 15/12/88
s 4
f 17/65/89 25/66/90 36/58/30 35/61/61
s 10
f 50/94/91 53/95/92 56/93/93
f 56/93/93 53/95/92 57/92/94
f 57/92/94 53/95/92 58/91/95
f 58/91/95 53/95/92 59/90/96
f 59/90/96 53/95/92 60/89/97
f 60/89/97 53/95/92 61/88/98
f 61/88/98 53/95/92 62/96/99
s 4
f 43/75/43 42/73/42 29/77/100 18/78/101
s 5
f 44/3/47 43/2/46 18/5/102 16/6/103
s 2
f 34/38/68 33/34/18 26/41/104 15/42/105
f 44/53/23 32/52/22 31/51/77 14/54/106
s off
f 25/13/107 26/14/108 51/15/109 50/16/110
f 30/19/111 29/20/112 53/21/113 52/22/114
f 26/41/115 33/34/116 55/45/117 51/46/118
f 37/129/119 36/130/120 56/131/121 57/132/122
f 36/17/123 25/13/124 50/16/125 56/18/126
f 38/133/127 37/129/128 57/132/129 58/134/130
f 39/135/131 38/133/132 58/134/133 59/136/134
f 40/137/135 39/135/136 59/136/137 60/138/138
f 41/139/139 40/137/140 60/138/141 61/140/142
f 29/20/143 42/23/144 62/24/145 53/21/146
f 42/141/147 41/139/148 61/140/149 62/142/150
f 45/143/151 46/144/152 64/145/153 63/146/154
f 46/144/155 47/147/156 65/148/157 64/145/158
f 47/147/159 48/151/160 66/152/161 65/148/162
f 48/151/163 49/153/164 67/154/165 66/152/166
f 49/153/167 54/155/168 68/156/169 67/154/170
f 54/25/171 52/26/172 69/27/173 68/28/174
f 51/29/175 55/30/176 71/31/177 70/32/178
f 55/149/179 45/143/180 63/146/181 71/150/182
f 70/79/183 71/80/184 73/162/185 72/161/186
f 71/80/187 63/81/188 74/163/189 73/162/190
f 63/81/191 64/82/192 75/164/193 74/163/194
f 64/82/195 65/83/196 76/165/197 75/164/198
f 65/83/199 66/84/200 77/166/201 76/165/202
f 66/84/203 67/85/204 78/167/205 77/166/206
f 67/85/207 68/86/208 79/168/209 78/167/210
f 68/86/211 69/87/212 80/169/213 79/168/214
f 69/87/215 70/79/216 72/161/217 80/169/218
